<?xml version="1.0" encoding="UTF-8" standalone="no"?>
<!DOCTYPE svg PUBLIC "-//W3C//DTD SVG 1.1//EN" "http://www.w3.org/Graphics/SVG/1.1/DTD/svg11.dtd">
<svg xmlns="http://www.w3.org/2000/svg" version="1.1" viewBox="350.00 380.00 324.00 244.00">
<g stroke-width="2.00" fill="none" stroke-linecap="butt">
<path stroke="#4281f7" d="
  M 528.07 509.09
  Q 524.93 508.13 523.25 508.06
  Q 508.07 507.44 490.49 507.49
  Q 485.28 507.51 479.98 507.03
  Q 475.67 506.64 473.76 504.75
  Q 470.06 501.09 466.51 498.53"
/>
<path stroke="#7dc0a1" d="
  M 581.25 482.81
  Q 579.13 481.77 578.50 481.77
  Q 555.75 481.78 533.00 481.92
  Q 529.68 481.94 526.16 481.28"
/>
<path stroke="#f9a14d" d="
  M 575.91 547.23
  Q 572.47 547.11 569.09 544.26
  Q 568.75 543.97 569.17 544.12
  Q 569.30 544.17 569.45 544.13
  Q 569.99 544.00 569.60 543.60
  Q 567.96 541.89 565.54 541.20
  Q 565.04 541.05 564.68 540.67
  C 563.63 539.55 562.29 538.86 561.43 537.59
  Q 559.47 534.70 556.66 532.90
  A 1.80 1.78 -88.0 0 1 556.05 532.24
  Q 555.52 531.27 554.64 530.75
  Q 554.26 530.53 554.02 530.16
  Q 553.68 529.66 553.22 529.26
  Q 552.61 528.74 552.13 527.94
  Q 549.93 524.21 547.68 520.83
  Q 547.42 520.46 547.65 520.06
  Q 547.89 519.64 548.04 518.67"
/>
<path stroke="#f06b67" d="
  M 530.10 587.70
  Q 531.00 586.27 532.75 585.57
  Q 533.11 585.42 532.77 585.22
  Q 532.55 585.09 532.46 584.84
  Q 528.34 573.43 526.38 560.96
  Q 526.30 560.45 525.93 560.09
  Q 524.72 558.87 524.66 556.96
  Q 524.65 556.36 524.21 556.77
  Q 524.12 556.85 523.91 556.83
  Q 523.47 556.77 523.70 556.40
  Q 524.15 555.67 523.50 555.20"
/>
</g>
<path fill="#02a1f4" d="
  M 528.07 509.09
  Q 524.93 508.13 523.25 508.06
  Q 508.07 507.44 490.49 507.49
  Q 485.28 507.51 479.98 507.03
  Q 475.67 506.64 473.76 504.75
  Q 470.06 501.09 466.51 498.53
  Q 462.22 493.47 459.36 488.09
  C 453.98 477.96 458.50 469.63 464.40 460.90
  Q 473.14 447.93 482.94 432.69
  Q 485.44 428.80 488.19 424.94
  C 491.35 420.49 494.74 416.45 500.54 416.26
  Q 514.69 415.82 530.25 415.97
  C 533.64 416.00 536.75 419.68 535.41 422.82
  Q 534.73 424.39 533.64 425.85
  Q 518.58 445.85 504.81 469.53
  C 502.99 472.66 506.24 475.82 508.09 478.01
  Q 514.70 485.85 520.31 492.81
  Q 526.26 500.20 529.06 505.96
  Q 530.07 508.06 528.07 509.09
  Z"
/>
<path fill="#e84575" d="
  M 459.43 418.05
  Q 466.61 418.08 469.87 424.29
  C 471.18 426.78 469.81 429.80 468.55 432.01
  Q 464.54 439.07 460.25 445.76
  Q 447.08 466.32 433.78 486.78
  Q 431.90 489.66 429.88 492.10
  Q 429.49 492.56 428.99 492.22
  Q 427.27 491.05 425.93 489.28
  C 422.16 484.30 419.25 478.96 415.68 473.77
  Q 409.53 464.82 404.43 456.95
  Q 402.74 454.34 401.35 451.28
  C 396.57 440.75 402.82 428.36 410.87 421.62
  C 415.40 417.83 419.26 417.92 424.63 417.94
  Q 447.65 417.99 459.43 418.05
  Z"
/>
<path fill="#00ceff" d="
  M 581.25 482.81
  Q 579.13 481.77 578.50 481.77
  Q 555.75 481.78 533.00 481.92
  Q 529.68 481.94 526.16 481.28
  Q 525.89 479.02 527.69 476.33
  Q 528.60 474.97 529.40 473.64
  Q 539.93 456.15 550.89 440.85
  Q 554.90 435.25 562.79 435.08
  Q 581.40 434.67 600.26 434.78
  C 609.15 434.83 618.34 448.60 622.13 456.33
  C 625.46 463.12 626.06 471.23 621.56 477.51
  C 618.63 481.60 614.49 482.82 609.51 483.06
  C 599.91 483.51 590.67 483.08 581.25 482.81
  Z"
/>
<path fill="#fab142" d="
  M 526.16 481.28
  Q 529.68 481.94 533.00 481.92
  Q 555.75 481.78 578.50 481.77
  Q 579.13 481.77 581.25 482.81
  Q 581.38 483.62 581.92 484.07
  Q 586.89 488.14 589.96 493.62
  C 593.99 500.83 596.71 508.14 594.25 516.25
  Q 592.40 522.33 588.55 528.03
  Q 582.29 537.28 575.91 547.23
  Q 572.47 547.11 569.09 544.26
  Q 568.75 543.97 569.17 544.12
  Q 569.30 544.17 569.45 544.13
  Q 569.99 544.00 569.60 543.60
  Q 567.96 541.89 565.54 541.20
  Q 565.04 541.05 564.68 540.67
  C 563.63 539.55 562.29 538.86 561.43 537.59
  Q 559.47 534.70 556.66 532.90
  A 1.80 1.78 -88.0 0 1 556.05 532.24
  Q 555.52 531.27 554.64 530.75
  Q 554.26 530.53 554.02 530.16
  Q 553.68 529.66 553.22 529.26
  Q 552.61 528.74 552.13 527.94
  Q 549.93 524.21 547.68 520.83
  Q 547.42 520.46 547.65 520.06
  Q 547.89 519.64 548.04 518.67
  Q 548.63 514.57 544.52 508.23
  Q 532.42 489.56 526.16 481.28
  Z"
/>
<path fill="#8160f9" d="
  M 466.51 498.53
  Q 470.06 501.09 473.76 504.75
  Q 475.67 506.64 479.98 507.03
  Q 485.28 507.51 490.49 507.49
  Q 508.07 507.44 523.25 508.06
  Q 524.93 508.13 528.07 509.09
  Q 526.01 512.84 523.50 516.49
  Q 512.61 532.39 501.68 548.16
  C 500.07 550.49 497.55 552.04 494.64 552.20
  Q 482.06 552.90 471.39 552.19
  C 467.77 551.95 464.74 550.21 462.26 547.59
  C 457.41 542.45 454.25 536.19 450.28 530.53
  Q 443.01 520.16 436.34 509.32
  C 435.32 507.66 434.47 504.97 435.32 503.01
  Q 437.02 499.12 441.71 499.05
  C 446.40 498.98 450.02 499.07 455.68 499.37
  Q 461.11 499.66 466.51 498.53
  Z"
/>
<path fill="#f89158" d="
  M 548.04 518.67
  Q 547.89 519.64 547.65 520.06
  Q 547.42 520.46 547.68 520.83
  Q 549.93 524.21 552.13 527.94
  Q 552.61 528.74 553.22 529.26
  Q 553.68 529.66 554.02 530.16
  Q 554.26 530.53 554.64 530.75
  Q 555.52 531.27 556.05 532.24
  A 1.80 1.78 -88.0 0 0 556.66 532.90
  Q 559.47 534.70 561.43 537.59
  C 562.29 538.86 563.63 539.55 564.68 540.67
  Q 565.04 541.05 565.54 541.20
  Q 567.96 541.89 569.60 543.60
  Q 569.99 544.00 569.45 544.13
  Q 569.30 544.17 569.17 544.12
  Q 568.75 543.97 569.09 544.26
  Q 572.47 547.11 575.91 547.23
  Q 564.55 564.43 560.28 572.03
  Q 556.71 578.38 552.40 583.15
  Q 548.94 586.97 543.50 587.39
  Q 536.95 587.90 530.10 587.70
  Q 531.00 586.27 532.75 585.57
  Q 533.11 585.42 532.77 585.22
  Q 532.55 585.09 532.46 584.84
  Q 528.34 573.43 526.38 560.96
  Q 526.30 560.45 525.93 560.09
  Q 524.72 558.87 524.66 556.96
  Q 524.65 556.36 524.21 556.77
  Q 524.12 556.85 523.91 556.83
  Q 523.47 556.77 523.70 556.40
  Q 524.15 555.67 523.50 555.20
  L 548.04 518.67
  Z"
/>
<path fill="#e84575" d="
  M 523.50 555.20
  Q 524.15 555.67 523.70 556.40
  Q 523.47 556.77 523.91 556.83
  Q 524.12 556.85 524.21 556.77
  Q 524.65 556.36 524.66 556.96
  Q 524.72 558.87 525.93 560.09
  Q 526.30 560.45 526.38 560.96
  Q 528.34 573.43 532.46 584.84
  Q 532.55 585.09 532.77 585.22
  Q 533.11 585.42 532.75 585.57
  Q 531.00 586.27 530.10 587.70
  Q 521.06 588.01 511.75 587.97
  C 508.30 587.95 504.66 585.24 506.16 581.60
  Q 506.69 580.31 507.84 578.57
  Q 515.56 566.82 523.50 555.20
  Z"
/>
</svg>
